<?xml version="1.0" encoding="UTF-8" standalone="no"?>
<!-- Created with Inkscape (http://www.inkscape.org/) -->

<svg
   xmlns:dc="http://purl.org/dc/elements/1.1/"
   xmlns:cc="http://creativecommons.org/ns#"
   xmlns:rdf="http://www.w3.org/1999/02/22-rdf-syntax-ns#"
   xmlns:svg="http://www.w3.org/2000/svg"
   xmlns="http://www.w3.org/2000/svg"
   xmlns:sodipodi="http://sodipodi.sourceforge.net/DTD/sodipodi-0.dtd"
   xmlns:inkscape="http://www.inkscape.org/namespaces/inkscape"
   width="39.6875mm"
   height="20.372099mm"
   viewBox="0 0 39.6875 20.372099"
   version="1.1"
   id="svg8"
   inkscape:version="0.92.2 5c3e80d, 2017-08-06"
   sodipodi:docname="oslo_logo1.svg">
  <defs
     id="defs2">
    <style
       id="style114">.cls-1{fill:#2a2859;}</style>
  </defs>
  <sodipodi:namedview
     id="base"
     pagecolor="#ffffff"
     bordercolor="#666666"
     borderopacity="1.0"
     inkscape:pageopacity="0.0"
     inkscape:pageshadow="2"
     inkscape:zoom="7.7405704"
     inkscape:cx="75"
     inkscape:cy="38.498454"
     inkscape:document-units="mm"
     inkscape:current-layer="layer1"
     showgrid="false"
     inkscape:window-width="1440"
     inkscape:window-height="773"
     inkscape:window-x="1707"
     inkscape:window-y="1441"
     inkscape:window-maximized="1" />
  <metadata
     id="metadata5">
    <rdf:RDF>
      <cc:Work
         rdf:about="">
        <dc:format>image/svg+xml</dc:format>
        <dc:type
           rdf:resource="http://purl.org/dc/dcmitype/StillImage" />
        <dc:title></dc:title>
      </cc:Work>
    </rdf:RDF>
  </metadata>
  <g
     inkscape:label="Layer 1"
     inkscape:groupmode="layer"
     id="layer1"
     transform="translate(-1.1271458,-21.080865)">
    <g
       id="g156"
       transform="matrix(0.13226906,0,0,0.13226906,-9.2597749,10.688485)">
      <path
         id="path120"
         d="m 180.87,112.76 -2.09,-1.34 a 67.43,67.43 0 0 0 -10.16,-5.37 v 0 c -1.48,-0.62 -3,-1.2 -4.53,-1.72 a 66.79,66.79 0 0 0 -11.15,-2.76 c -1.6,-0.25 -3.24,-0.45 -4.86,-0.59 a 71.22,71.22 0 0 0 -11.5,0 c -1.62,0.14 -3.26,0.34 -4.86,0.59 a 66.79,66.79 0 0 0 -11.15,2.76 c -1.53,0.52 -3,1.1 -4.52,1.72 H 116 a 67.43,67.43 0 0 0 -10.16,5.37 l -2.09,1.34 L 93.37,93.06 95.17,92 A 89.39,89.39 0 0 1 106,86.26 l 1.94,-0.87 3.71,7.08 c 1.05,-0.42 2.11,-0.82 3.17,-1.21 l -1.91,-7.76 2,-0.65 a 90.4,90.4 0 0 1 11.83,-2.92 l 2.09,-0.36 1.91,7.75 0.55,-0.07 q 1.41,-0.19 2.82,-0.33 v -8 l 2.12,-0.14 c 2,-0.14 4.08,-0.21 6.09,-0.21 2.01,0 4.06,0.07 6.09,0.21 l 2.12,0.14 v 8 c 1.12,0.11 2.25,0.25 3.37,0.4 l 1.91,-7.75 2.09,0.36 a 90,90 0 0 1 11.83,2.92 l 2,0.65 -1.91,7.76 c 1.06,0.39 2.12,0.79 3.17,1.21 l 3.71,-7.08 1.94,0.87 A 89.39,89.39 0 0 1 189.41,92 l 1.8,1.11 z m -81.5,-18 6.08,11.58 a 72.29,72.29 0 0 1 8.74,-4.42 h 0.07 c 1.56,-0.66 3.18,-1.28 4.8,-1.84 A 71.81,71.81 0 0 1 131,97.07 c 1.71,-0.27 3.45,-0.48 5.18,-0.63 a 73.81,73.81 0 0 1 12.26,0 c 1.73,0.15 3.47,0.36 5.19,0.63 a 71.94,71.94 0 0 1 11.89,2.93 c 1.62,0.56 3.24,1.18 4.82,1.84 v 0 a 73.17,73.17 0 0 1 8.75,4.42 l 6.07,-11.58 c -2.11,-1.24 -4.28,-2.38 -6.49,-3.43 l -3.67,7 -1.94,-0.84 -0.77,-0.33 c -1.94,-0.82 -3.93,-1.57 -5.94,-2.23 l -2,-0.66 1.9,-7.68 c -2.35,-0.69 -4.74,-1.27 -7.13,-1.76 l -1.9,7.68 -2.07,-0.35 c -2.36,-0.4 -4.76,-0.69 -7.14,-0.86 l -2.1,-0.15 V 83.2 c -2.45,-0.11 -4.88,-0.11 -7.34,0 v 7.91 l -2.1,0.15 c -1.55,0.11 -3.11,0.28 -4.65,0.48 -0.83,0.12 -1.67,0.24 -2.49,0.38 l -2.07,0.35 -1.9,-7.68 c -2.39,0.49 -4.78,1.07 -7.13,1.76 l 1.9,7.68 -2,0.66 c -2,0.66 -4,1.41 -5.94,2.23 l -0.77,0.33 -1.93,0.84 -3.68,-7 c -2.16,1.05 -4.33,2.19 -6.44,3.43 z"
         class="cls-1"
         inkscape:connector-curvature="0"
         style="fill:#2a2859" />
      <path
         id="path122"
         d="m 142.26,232.59 a 63.69,63.69 0 1 1 45,-18.66 63.27,63.27 0 0 1 -45,18.66 z m 0,-122.62 A 58.95,58.95 0 1 0 183.93,127.24 58.51,58.51 0 0 0 142.26,110 Z"
         class="cls-1"
         inkscape:connector-curvature="0"
         style="fill:#2a2859" />
      <path
         id="path124"
         d="m 130,150.8 a 15.24,15.24 0 1 1 24.44,0 l 3.36,2.5 a 19.22,19.22 0 0 0 3.85,-11.6 19.43,19.43 0 1 0 -35,11.61 z"
         class="cls-1"
         inkscape:connector-curvature="0"
         style="fill:#2a2859" />
      <path
         id="path126"
         d="m 142.23,155.45 a 7.61,7.61 0 0 0 7.6,-7.6 v -0.75 h 2.5 v -4.84 a 10.1,10.1 0 0 0 -20.2,0 v 4.84 h 2.51 v 0.75 a 7.6,7.6 0 0 0 7.59,7.6 z m -5.91,-13.19 a 5.91,5.91 0 1 1 11.82,0 v 4.84 h -1.8 v 0.75 a 4.11,4.11 0 1 1 -8.21,0 v -0.75 h -1.81 z"
         class="cls-1"
         inkscape:connector-curvature="0"
         style="fill:#2a2859" />
      <rect
         id="rect128"
         height="5.8499999"
         width="5.8499999"
         y="171.81"
         x="98.75"
         class="cls-1"
         style="fill:#2a2859" />
      <path
         id="path130"
         d="m 189.3,167.27 v 3.14 h 3 l -8.13,8.14 v -14.16 l 2.08,2.09 2.22,-2.22 -5.87,-5.88 -5.91,5.91 2.22,2.22 2.12,-2.12 v 14.14 l -8.12,-8.12 h 2.95 v -3.14 h -8.32 v 8.36 h 3.15 v -3 L 177,179 h -12.76 l -1.33,-1.19 -1.14,-10.41 c -0.06,-0.56 -0.68,-5.92 -5.13,-8.21 h -0.11 l -4.53,-1.79 -0.69,-0.26 -0.69,0.22 a 31.13,31.13 0 0 1 -8.42,0.92 30.91,30.91 0 0 1 -8.41,-0.92 l -0.7,-0.22 -5.19,2 h -0.11 c -4.45,2.29 -5.07,7.64 -5.12,8.21 l -1.18,10.78 -1,0.82 h -4.43 a 15.25,15.25 0 0 0 0.61,-4.24 15,15 0 1 0 -17.3,14.89 h 0.19 c 0.4,0.06 0.8,0.1 1.21,0.13 l 19.5,2 a 108.31,108.31 0 0 1 -3.89,19.49 l 2,0.66 2,0.65 A 110.57,110.57 0 0 0 124.45,192 l 4.39,-3.72 -0.67,27.18 1.76,0.32 a 72.35,72.35 0 0 0 24.85,0 l 1.75,-0.33 -0.67,-27.14 4.41,3.74 a 110.34,110.34 0 0 0 4.09,20.5 l 4,-1.31 a 107.56,107.56 0 0 1 -3.89,-19.47 l 19.63,-1.82 v -6.84 l 10.43,-10.44 v 3 h 3.14 v -8.31 z m -47.07,-4.81 a 38.28,38.28 0 0 0 9,-0.91 l 3.64,1.39 c 2.43,1.33 2.77,4.78 2.78,4.81 l 0.9,8.23 h -5.07 a 11.08,11.08 0 0 1 -5.82,-1.59 17.83,17.83 0 0 1 -3.5,-3.41 L 137,162.19 a 46.62,46.62 0 0 0 5.23,0.27 z m -40.56,23.13 h -0.53 l -1.13,-0.12 a 10.85,10.85 0 1 1 1.66,0.13 z m 27.33,-2.93 -6,5.11 -12,-1.21 a 14.73,14.73 0 0 0 3.18,-3.41 h 7.94 l 7,-5.91 z m 0.32,-11 h -0.06 v 0 l -3.08,2.6 0.7,-6.44 v -0.06 c 0,0 0.34,-3.48 2.78,-4.81 l 2,-0.76 3.59,4.44 z m 13,41 a 69.63,69.63 0 0 1 -9.82,-0.7 l 0.22,-8.88 v 0 l 0.71,-29.42 4.47,-3.76 3,3.69 a 21.32,21.32 0 0 0 4.61,4.39 14.92,14.92 0 0 0 6,2.09 l 0.78,31.87 a 70.53,70.53 0 0 1 -10.03,0.7 z m 37.63,-26.55 -18.13,1.69 -9,-7.63 h 0.66 5.86 l 3.35,3 h 17.25 z"
         class="cls-1"
         inkscape:connector-curvature="0"
         style="fill:#2a2859" />
      <path
         id="path132"
         d="m 241.54,166.14 c 0,-15.54 9.78,-25 21.77,-25 11.99,0 21.76,9.5 21.76,25 0,16.07 -9.78,25.71 -21.76,25.71 -11.98,0 -21.77,-9.64 -21.77,-25.71 z m 37.37,0 c 0,-13.39 -6.9,-19.42 -15.6,-19.42 -8.7,0 -15.61,6 -15.61,19.42 0,13.42 7.17,20.09 15.61,20.09 8.44,0 15.6,-6.7 15.6,-20.09 z"
         class="cls-1"
         inkscape:connector-curvature="0"
         style="fill:#2a2859" />
      <path
         id="path134"
         d="m 305.8,155.09 c 6.56,0 11.38,2.88 13.25,7.57 l -4.35,2.21 c -1.47,-3.15 -4.69,-4.89 -9,-4.89 -4.55,0 -7.57,1.81 -7.57,4.82 0,2.61 1.68,4.15 5.5,5 l 5.15,1 c 7.7,1.54 11.39,5 11.39,10.31 0,6.36 -5.63,10.72 -13.93,10.72 -7.24,0 -12.39,-2.82 -14.94,-8 l 4.42,-2.34 c 1.77,3.51 5.28,5.51 10.34,5.51 5.06,0 8.51,-2.21 8.51,-5.56 0,-2.95 -1.74,-4.56 -5.83,-5.43 l -6.09,-1.2 c -6.56,-1.34 -10.11,-4.69 -10.11,-9.58 0,-5.79 5.46,-10.14 13.26,-10.14 z"
         class="cls-1"
         inkscape:connector-curvature="0"
         style="fill:#2a2859" />
      <path
         id="path136"
         d="m 337.74,191.59 c -6,0 -8.91,-3.69 -8.91,-9.45 V 141.7 h 5.76 v 40.18 c 0,3.08 1.67,4.55 4.49,4.55 a 8.26,8.26 0 0 0 2.14,-0.27 v 5 a 15.49,15.49 0 0 1 -3.48,0.43 z"
         class="cls-1"
         inkscape:connector-curvature="0"
         style="fill:#2a2859" />
      <path
         id="path138"
         d="m 346.11,173.37 c 0,-11.05 7.23,-18.28 16.27,-18.28 9.04,0 16.2,7.23 16.2,18.28 0,11.25 -7.3,18.48 -16.2,18.48 -8.9,0 -16.27,-7.23 -16.27,-18.48 z m 26.51,0 c 0,-9 -4.68,-13.26 -10.24,-13.26 -5.56,0 -10.32,4.22 -10.32,13.26 0,9.04 4.63,13.46 10.32,13.46 5.69,0 10.24,-4.42 10.24,-13.46 z"
         class="cls-1"
         inkscape:connector-curvature="0"
         style="fill:#2a2859" />
    </g>
  </g>
</svg>
